<?xml version="1.0" standalone="no"?>
<!DOCTYPE svg PUBLIC "-//W3C//DTD SVG 20010904//EN"
 "http://www.w3.org/TR/2001/REC-SVG-20010904/DTD/svg10.dtd">
<svg version="1.0" xmlns="http://www.w3.org/2000/svg"
 width="260.000000pt" height="260.000000pt" viewBox="0 0 260.000000 260.000000"
 preserveAspectRatio="xMidYMid meet">
<metadata>
Created by potrace 1.11, written by Peter Selinger 2001-2013
</metadata>
<g transform="translate(0.000000,260.000000) scale(0.100000,-0.100000)"
fill="#000000" stroke="none">
<path d="M1142 2515 c-16 -20 -39 -56 -51 -81 l-23 -44 -36 28 c-65 49 -131
73 -133 48 -7 -87 -4 -101 23 -114 58 -28 102 -106 114 -202 3 -22 10 -58 18
-82 l13 -43 -64 3 c-39 2 -93 -3 -136 -14 -40 -9 -74 -17 -76 -16 -2 1 -13 30
-25 64 -31 87 -70 152 -118 193 -46 39 -113 72 -154 77 -29 3 -29 3 -29 -55
l0 -58 40 -18 c44 -20 95 -72 119 -123 15 -31 46 -116 46 -125 0 -5 -45 -22
-78 -28 -128 -25 -184 -18 -241 32 -40 34 -44 35 -79 25 -21 -6 -46 -18 -56
-25 -17 -13 -17 -16 -3 -44 22 -42 77 -87 131 -108 38 -15 65 -17 149 -12 103
5 180 24 337 82 48 18 102 29 150 32 68 4 80 2 134 -25 l59 -31 38 42 c21 23
38 47 39 54 0 7 -14 33 -31 58 -62 92 -82 197 -56 301 8 32 42 96 66 123 17
19 18 27 9 45 -19 37 -49 76 -58 76 -5 0 -22 -16 -38 -35z"/>
<path d="M1365 2507 c-14 -24 -25 -47 -25 -51 0 -4 12 -23 26 -41 62 -81 82
-205 49 -307 -9 -29 -39 -84 -66 -123 -162 -229 -191 -293 -204 -455 -2 -19
-4 -39 -4 -43 -1 -5 -13 0 -28 11 -16 11 -59 30 -97 42 -38 13 -80 35 -93 49
-28 29 -66 106 -83 170 -6 22 -13 41 -15 41 -2 0 -29 -9 -59 -20 l-55 -21 15
-52 c8 -29 32 -86 53 -127 l38 -76 -95 -28 c-84 -25 -99 -27 -134 -17 -53 16
-112 77 -132 138 l-16 49 -60 0 -61 0 6 -35 c11 -70 56 -151 112 -200 l54 -48
-43 -18 c-72 -30 -143 -28 -223 6 -38 16 -70 28 -71 26 -11 -13 -44 -85 -44
-97 0 -24 126 -70 208 -77 94 -7 138 5 312 87 211 100 310 122 405 90 48 -16
60 -28 84 -81 16 -34 19 -61 16 -138 -2 -53 -9 -109 -15 -126 -6 -16 -11 -32
-11 -35 3 -23 -42 -117 -81 -171 -103 -142 -300 -238 -543 -265 -83 -9 -121
-12 -157 -13 -21 -1 -38 -5 -38 -11 0 -15 123 -141 187 -192 65 -51 75 -52
181 -18 156 50 318 179 424 338 46 68 61 78 48 32 -5 -17 -9 -33 -9 -35 1 -13
-14 -74 -28 -120 -35 -118 -96 -225 -185 -327 -32 -36 -58 -71 -58 -76 0 -5
15 -13 33 -17 17 -4 34 -9 37 -10 47 -16 117 -32 181 -41 l46 -6 15 48 c15 46
41 160 53 229 2 17 7 39 9 50 2 12 7 48 11 80 4 33 9 69 11 80 8 40 16 329 18
655 3 355 10 414 56 513 29 62 83 122 138 155 42 24 56 27 137 26 78 -1 103
-6 187 -38 154 -58 229 -74 343 -72 126 1 182 26 238 106 27 39 21 56 -26 74
-57 21 -60 21 -97 -14 -63 -59 -174 -66 -301 -18 -31 11 -30 22 11 113 34 76
77 126 130 150 l40 18 0 59 0 58 -27 -6 c-131 -30 -223 -122 -278 -278 -15
-41 -27 -60 -36 -58 -8 2 -40 10 -72 19 -33 8 -87 13 -123 11 -61 -3 -65 -2
-60 17 3 11 13 58 22 105 19 101 51 162 103 195 37 23 38 25 37 77 -2 52 -2
53 -30 50 -31 -3 -104 -46 -123 -71 -13 -19 -11 -21 -51 49 -37 64 -66 100
-81 100 -5 0 -22 -20 -36 -43z"/>
<path d="M1261 2306 c-33 -67 -23 -173 18 -210 19 -17 20 -16 41 24 26 51 28
122 6 177 -24 58 -41 60 -65 9z"/>
<path d="M1726 2287 c-46 -47 -68 -105 -59 -160 3 -18 6 -34 8 -36 2 -2 20 6
39 18 58 36 102 148 80 205 -9 24 -21 20 -68 -27z"/>
<path d="M786 2312 c-8 -14 4 -94 20 -128 19 -39 80 -97 97 -91 23 7 18 89 -8
142 -28 59 -92 104 -109 77z"/>
<path d="M341 2176 c-8 -9 -6 -26 5 -59 22 -66 96 -127 154 -127 15 0 17 5 11
33 -19 80 -60 128 -133 156 -19 7 -29 7 -37 -3z"/>
<path d="M2220 2183 c-39 -12 -77 -34 -96 -55 -48 -52 -72 -138 -39 -138 59 0
136 69 156 137 12 46 6 64 -21 56z"/>
<path d="M959 1817 c-3 -88 19 -148 67 -186 34 -26 54 -27 55 -1 1 11 2 30 3
43 5 58 -57 158 -105 170 -16 4 -19 -1 -20 -26z"/>
<path d="M1568 1820 c-50 -41 -73 -104 -69 -187 1 -33 31 -29 68 10 43 45 54
71 58 133 4 71 -10 82 -57 44z"/>
<path d="M1751 1781 c-4 -9 -14 -36 -21 -61 -35 -111 -72 -147 -203 -195 -26
-9 -54 -24 -63 -32 -8 -8 -17 -14 -19 -11 -2 2 -6 31 -10 64 -3 32 -7 69 -10
82 -3 12 -7 31 -9 42 -12 51 -27 52 -50 4 -42 -90 -46 -145 -42 -619 2 -247 6
-459 9 -470 3 -11 8 -47 12 -80 16 -138 24 -180 56 -309 16 -66 29 -122 29
-124 0 -8 105 8 180 27 81 21 130 38 130 45 0 3 -20 26 -46 51 -120 122 -212
316 -240 505 l-6 45 40 -60 c118 -177 275 -302 448 -359 98 -32 111 -30 179
24 67 54 185 175 185 190 0 6 -15 10 -32 11 -282 4 -521 83 -654 214 -100 98
-144 190 -162 340 -25 207 29 290 188 287 75 -1 166 -31 323 -107 153 -74 214
-90 308 -82 57 5 179 44 201 66 12 11 -40 114 -55 108 -111 -49 -135 -56 -187
-52 -57 4 -130 29 -130 44 0 5 13 17 29 28 60 38 131 160 131 226 0 21 -4 23
-55 22 l-56 0 -34 -72 c-32 -64 -40 -74 -87 -97 -29 -14 -59 -26 -67 -26 -17
0 -182 47 -188 54 -2 2 10 31 27 64 35 70 72 180 64 193 -3 5 -14 9 -24 9 -10
0 -21 4 -24 9 -11 17 -56 19 -65 2z"/>
<path d="M515 1712 c11 -89 75 -163 150 -174 17 -3 19 2 16 32 -7 76 -71 152
-139 166 -30 6 -31 5 -27 -24z"/>
<path d="M130 1580 c0 -27 23 -80 46 -106 29 -33 86 -64 117 -64 25 0 27 3 21
28 -18 73 -57 120 -119 147 -50 20 -65 19 -65 -5z"/>
<path d="M2393 1588 c-46 -15 -102 -77 -118 -131 l-14 -47 25 0 c37 0 100 35
127 72 34 45 50 105 30 112 -8 3 -15 6 -16 5 -1 -1 -16 -6 -34 -11z"/>
</g>
</svg>
